<svg xmlns="http://www.w3.org/2000/svg" xmlns:xlink="http://www.w3.org/1999/xlink" width="264" height="75" viewBox="0 0 264 75">
    <defs>
        <rect id="a" width="264" height="75" rx="4"/>
    </defs>
    <g fill="none" fill-rule="evenodd" opacity=".878">
        <mask id="b" fill="#fff">
            <use xlink:href="#a"/>
        </mask>
        <use fill="#FFF" xlink:href="#a"/>
        <g fill-rule="nonzero" mask="url(#b)">
            <path fill="#F3F4F4" d="M228.787-217.87l-346.523 346.523 357.012 357.012L585.8 139.142z"/>
            <path fill="#ECECEC" d="M503.126 221.907l-357.09-357.09-1.546 1.545 357.09 357.091z"/>
            <path fill="#00A474" d="M248.511-67L211-29.489l61.72 61.72 37.51-37.512z"/>
            <path fill="#8AD0FF" d="M92.005 55.294L65.11 82.188l56.501 56.5 26.894-26.893z"/>
            <path fill="#ECECEC" d="M271.75-174.954l-1.547-1.546-346.55 346.55 1.547 1.545z"/>
            <path fill="#ECECEC" d="M302.016 422.99L-55.028 65.945l-1.546 1.546L300.47 424.536z"/>
            <path fill="#75BA98" d="M278.493-35.23l-1.546-1.546-36.38 36.38 1.545 1.546z"/>
            <path fill="#FFF" d="M483.095 241.927L126.01-115.158l-3.864 3.864 357.085 357.085zM382.789 342.216L25.714-14.859l-3.865 3.864L378.925 346.08zM354.139 370.838L-2.914 13.785l-3.864 3.865 357.053 357.052z"/>
            <path fill="#FEC800" d="M292.96 132.5c10.701 0 19.553-4.384 24.475-8.545l.276-.254L444-3.089l-6.182-6.205-126.133 126.632c-1.924 1.537-22.515 16.962-46.014-6.625L83.181-72.5 77-66.295l182.49 183.213c11.632 11.679 23.374 15.582 33.47 15.582z"/>
            <path fill="#FEC800" d="M463.029 261.992L105.995-95.143 99.81-88.96l357.034 357.135z"/>
            <path fill="#FEE379" d="M545.99 179.036L188.956-178.099l-6.184 6.183 357.034 357.135z"/>
            <path fill="#FEC800" d="M330.748 394.264L-26.286 37.129l-6.184 6.183 357.034 357.135z"/>
            <path fill="#FFF" d="M420.071 304.951L62.987-52.133l-3.865 3.864 357.085 357.084z"/>
            <path fill="#FEE379" d="M468.272 21.55l-6.184-6.184L115.532 361.92l6.184 6.184z"/>
            <path fill="#FEC800" d="M381.256-65.465l-6.184-6.184L28.516 274.907l6.184 6.184zM297.01-149.709l-6.183-6.183L-55.73 190.663l6.184 6.184z"/>
            <path fill="#FEE379" d="M520.36 73.636l-6.185-6.184L167.62 414.008l6.183 6.184z"/>
        </g>
    </g>
</svg>
